<svg width="50" height="50" viewBox="0 0 90 90" fill="none" xmlns="http://www.w3.org/2000/svg">
<g clip-path="url(#clip0_1_3496)">
<path d="M62.5511 61.738C65.8494 61.3963 68.3517 58.5513 68.2379 55.1368C68.1244 51.7227 65.2807 48.9911 61.8685 48.9911H61.6412C58.1149 49.105 55.3853 52.064 55.4991 55.592C55.613 57.2992 56.2952 58.7787 57.3189 59.8029C53.4518 67.4284 47.5373 73.005 38.6657 77.6711C32.6374 80.8578 26.3818 81.996 20.1263 81.1995C15.0079 80.5165 11.027 78.2406 8.52432 74.4844C4.88487 68.9079 4.54376 62.8758 7.6148 56.844C9.77599 52.5192 13.1878 49.3325 15.349 47.7391C14.894 46.2596 14.2115 43.7559 13.8704 41.9351C-2.62201 53.8851 -0.915758 70.046 4.08883 77.6711C7.8421 83.3619 15.4628 86.8899 23.8795 86.8899C26.1542 86.8899 28.4288 86.6622 30.7038 86.0934C45.2627 83.248 56.2955 74.5983 62.5511 61.738ZM82.5694 47.6256C73.9251 37.4964 61.1863 31.9198 46.6275 31.9198H44.8078C43.7841 29.8713 41.6229 28.5053 39.2344 28.5053H39.0068C35.4811 28.6192 32.7516 31.5782 32.865 35.1065C32.9789 38.5206 35.8223 41.2522 39.2344 41.2522H39.4617C41.964 41.1383 44.1252 39.5449 45.035 37.3825H47.0824C55.7268 37.3825 63.9159 39.8862 71.3093 44.7802C76.9961 48.536 81.0908 53.4299 83.3655 59.3478C85.299 64.1278 85.1852 68.794 83.1378 72.7775C79.9533 78.8093 74.6076 82.1099 67.5557 82.1099C63.006 82.1099 58.684 80.7439 56.409 79.7197C55.158 80.8578 52.883 82.6786 51.2906 83.8171C56.1817 86.0931 61.1863 87.3451 65.9633 87.3451C76.8823 87.3451 84.9579 81.313 88.029 75.2813C91.3273 68.6801 91.0997 57.2992 82.5694 47.6256ZM24.7894 63.6723C24.9032 67.0867 27.7466 69.8179 31.1588 69.8179H31.3864C34.9124 69.7044 37.642 66.7451 37.5282 63.2171C37.4147 59.8026 34.5709 57.0714 31.1588 57.0714H30.9315C30.7038 57.0714 30.3624 57.0714 30.1354 57.185C25.472 49.446 23.5384 41.0244 24.221 31.9195C24.6756 25.0909 26.9506 19.1727 30.9315 14.2787C34.2298 10.0677 40.5992 8.0192 44.9216 7.90566C56.9778 7.67789 62.0958 22.7007 62.4373 28.7328C63.9159 29.0741 66.4182 29.8709 68.1244 30.44C66.7593 12.0031 55.3853 2.44299 44.4666 2.44299C34.2298 2.44299 24.7894 9.84067 21.0358 20.7664C15.8039 35.3339 19.2161 49.3325 25.5854 60.372C25.017 61.1685 24.6756 62.4206 24.7894 63.6726V63.6723Z" fill="#764ABC"/>
</g>
<defs>
<clipPath id="clip0_1_3496">
<rect width="89.3801" height="89.4317" fill="white" transform="translate(0.620117 0.177979)"/>
</clipPath>
</defs>
</svg>
